ffmpeg started on 2025-05-29 at 15:49:51
Report written to "D:\Convert\FFMetrics\reports\psnr_report-6.txt"
Log level: 32
Command line:
ffmpeg -hide_banner -nostdin -i "G:\\\xc0\xed\xe8\xec\xe5\\\xce\xed\xe3\xee\xe8\xed\xe3\xe8\\!_36_\xce\xf1\xe5\xed\xfc_2024\\JamClub\\\xd0\xe0\xed\xec\xe0 1_2\\[JamClub] Ranma 1_2 - 05 [1080p]_HEVC.mkv" -i "G:\\\xc0\xed\xe8\xec\xe5\\\xce\xed\xe3\xee\xe8\xed\xe3\xe8\\!_36_\xce\xf1\xe5\xed\xfc_2024\\JamClub\\\xd0\xe0\xed\xec\xe0 1_2\\[JamClub] Ranma 1_2 - 05 [1080p].mp4" -lavfi "[0:v]settb=AVTB,setpts=PTS-STARTPTS,format=pix_fmts=yuv420p10,fps=24000/1001,scale=1920:1080:flags=bicubic[main];[1:v]settb=AVTB,setpts=PTS-STARTPTS,format=pix_fmts=yuv420p,fps=24000/1001,scale=1920:1080:flags=bicubic[ref];[main][ref]psnr=eof_action=endall:stats_file='D\\:/Convert/FFMetrics/logs/psnr_logfile-6.txt'" -f null -
Input #0, matroska,webm, from 'G:\Аниме\Онгоинги\!_36_Осень_2024\JamClub\Ранма 1_2\[JamClub] Ranma 1_2 - 05 [1080p]_HEVC.mkv':
  Metadata:
    COMPATIBLE_BRANDS: isomiso2avc1mp41
    MAJOR_BRAND     : isom
    MINOR_VERSION   : 512
    ENCODER         : Lavf61.7.100
  Duration: 00:24:52.37, start: -0.001000, bitrate: 1777 kb/s
  Stream #0:0: Video: hevc (Main 10), yuv420p10le(tv, bt709, progressive), 1920x1080 [SAR 1:1 DAR 16:9], 23.98 fps, 23.98 tbr, 1k tbn (default)
      Metadata:
        HANDLER_NAME    : VideoHandler
        VENDOR_ID       : [0][0][0][0]
        ENCODER         : Lavc61.19.100 libx265
        BPS             : 1592257
        DURATION        : 00:24:52.282708333
        NUMBER_OF_FRAMES: 35779
        NUMBER_OF_BYTES : 297012219
        _STATISTICS_WRITING_APP: mkvpropedit v66.0.0 ('Josie') 64-bit
        _STATISTICS_WRITING_DATE_UTC: 2025-05-29 07:25:08
        _STATISTICS_TAGS: BPS DURATION NUMBER_OF_FRAMES NUMBER_OF_BYTES
  Stream #0:1(eng): Audio: aac (LC), 48000 Hz, stereo, fltp (default)
      Metadata:
        HANDLER_NAME    : SoundHandler
        VENDOR_ID       : [0][0][0][0]
        ENCODER         : Lavc61.19.100 aac
        BPS             : 181097
        DURATION        : 00:24:52.333000000
        NUMBER_OF_FRAMES: 69954
        NUMBER_OF_BYTES : 33782256
        _STATISTICS_WRITING_APP: mkvpropedit v66.0.0 ('Josie') 64-bit
        _STATISTICS_WRITING_DATE_UTC: 2025-05-29 07:25:08
        _STATISTICS_TAGS: BPS DURATION NUMBER_OF_FRAMES NUMBER_OF_BYTES
Input #1, mov,mp4,m4a,3gp,3g2,mj2, from 'G:\Аниме\Онгоинги\!_36_Осень_2024\JamClub\Ранма 1_2\[JamClub] Ranma 1_2 - 05 [1080p].mp4':
  Metadata:
    major_brand     : isom
    minor_version   : 512
    compatible_brands: isomiso2avc1mp41
    encoder         : Lavf60.16.100
  Duration: 00:24:52.35, start: 0.000000, bitrate: 3990 kb/s
  Stream #1:0[0x1](und): Video: h264 (High) (avc1 / 0x31637661), yuv420p(progressive), 1920x1080 [SAR 1:1 DAR 16:9], 3792 kb/s, 23.98 fps, 23.98 tbr, 90k tbn (default)
      Metadata:
        handler_name    : VideoHandler
        vendor_id       : [0][0][0][0]
  Stream #1:1[0x2](eng): Audio: aac (LC) (mp4a / 0x6134706D), 48000 Hz, stereo, fltp, 191 kb/s (default)
      Metadata:
        handler_name    : SoundHandler
        vendor_id       : [0][0][0][0]
Stream mapping:
  Stream #0:0 (hevc) -> settb:default
  Stream #1:0 (h264) -> settb:default
  psnr:default -> Stream #0:0 (wrapped_avframe)
  Stream #0:1 -> #0:1 (aac (native) -> pcm_s16le (native))
Output #0, null, to 'pipe:':
  Metadata:
    COMPATIBLE_BRANDS: isomiso2avc1mp41
    MAJOR_BRAND     : isom
    MINOR_VERSION   : 512
    encoder         : Lavf61.7.100
  Stream #0:0: Video: wrapped_avframe, yuv420p10le(tv, bt709, progressive), 1920x1080 [SAR 1:1 DAR 16:9], q=2-31, 200 kb/s, 23.98 fps, 23.98 tbn
      Metadata:
        encoder         : Lavc61.19.100 wrapped_avframe
  Stream #0:1(eng): Audio: pcm_s16le, 48000 Hz, stereo, s16, 1536 kb/s (default)
      Metadata:
        HANDLER_NAME    : SoundHandler
        VENDOR_ID       : [0][0][0][0]
        _STATISTICS_TAGS: BPS DURATION NUMBER_OF_FRAMES NUMBER_OF_BYTES
        BPS             : 181097
        DURATION        : 00:24:52.333000000
        NUMBER_OF_FRAMES: 69954
        NUMBER_OF_BYTES : 33782256
        _STATISTICS_WRITING_APP: mkvpropedit v66.0.0 ('Josie') 64-bit
        _STATISTICS_WRITING_DATE_UTC: 2025-05-29 07:25:08
        encoder         : Lavc61.19.100 pcm_s16le
frame=  117 fps=0.0 q=-0.0 size=N/A time=00:00:04.87 bitrate=N/A speed=9.31x    frame=  282 fps=269 q=-0.0 size=N/A time=00:00:11.76 bitrate=N/A speed=11.2x    frame=  488 fps=311 q=-0.0 size=N/A time=00:00:20.35 bitrate=N/A speed=  13x    frame=  745 fps=359 q=-0.0 size=N/A time=00:00:31.07 bitrate=N/A speed=  15x    frame=  980 fps=377 q=-0.0 size=N/A time=00:00:40.87 bitrate=N/A speed=15.7x    frame= 1127 fps=363 q=-0.0 size=N/A time=00:00:47.00 bitrate=N/A speed=15.1x    frame= 1289 fps=355 q=-0.0 size=N/A time=00:00:53.76 bitrate=N/A speed=14.8x    frame= 1476 fps=356 q=-0.0 size=N/A time=00:01:01.56 bitrate=N/A speed=14.9x    frame= 1641 fps=353 q=-0.0 size=N/A time=00:01:08.44 bitrate=N/A speed=14.7x    frame= 1800 fps=348 q=-0.0 size=N/A time=00:01:15.07 bitrate=N/A speed=14.5x    frame= 1953 fps=343 q=-0.0 size=N/A time=00:01:21.45 bitrate=N/A speed=14.3x    frame= 2112 fps=341 q=-0.0 size=N/A time=00:01:28.08 bitrate=N/A speed=14.2x    frame= 2280 fps=339 q=-0.0 size=N/A time=00:01:35.09 bitrate=N/A speed=14.1x    frame= 2443 fps=338 q=-0.0 size=N/A time=00:01:41.89 bitrate=N/A speed=14.1x    frame= 2570 fps=331 q=-0.0 size=N/A time=00:01:47.19 bitrate=N/A speed=13.8x    frame= 2727 fps=330 q=-0.0 size=N/A time=00:01:53.73 bitrate=N/A speed=13.8x    frame= 2889 fps=329 q=-0.0 size=N/A time=00:02:00.49 bitrate=N/A speed=13.7x    frame= 3098 fps=333 q=-0.0 size=N/A time=00:02:09.21 bitrate=N/A speed=13.9x    frame= 3325 fps=339 q=-0.0 size=N/A time=00:02:18.68 bitrate=N/A speed=14.1x    frame= 3545 fps=343 q=-0.0 size=N/A time=00:02:27.85 bitrate=N/A speed=14.3x    frame= 3805 fps=351 q=-0.0 size=N/A time=00:02:38.70 bitrate=N/A speed=14.6x    frame= 4045 fps=356 q=-0.0 size=N/A time=00:02:48.71 bitrate=N/A speed=14.9x    frame= 4302 fps=362 q=-0.0 size=N/A time=00:02:59.42 bitrate=N/A speed=15.1x    frame= 4515 fps=364 q=-0.0 size=N/A time=00:03:08.31 bitrate=N/A speed=15.2x    frame= 4763 fps=369 q=-0.0 size=N/A time=00:03:18.65 bitrate=N/A speed=15.4x    frame= 4998 fps=372 q=-0.0 size=N/A time=00:03:28.45 bitrate=N/A speed=15.5x    frame= 5191 fps=372 q=-0.0 size=N/A time=00:03:36.50 bitrate=N/A speed=15.5x    frame= 5415 fps=375 q=-0.0 size=N/A time=00:03:45.85 bitrate=N/A speed=15.6x    frame= 5643 fps=377 q=-0.0 size=N/A time=00:03:55.36 bitrate=N/A speed=15.7x    frame= 5886 fps=380 q=-0.0 size=N/A time=00:04:05.49 bitrate=N/A speed=15.9x    frame= 6126 fps=383 q=-0.0 size=N/A time=00:04:15.50 bitrate=N/A speed=  16x    frame= 6374 fps=386 q=-0.0 size=N/A time=00:04:25.84 bitrate=N/A speed=16.1x    frame= 6631 fps=389 q=-0.0 size=N/A time=00:04:36.56 bitrate=N/A speed=16.2x    frame= 6872 fps=392 q=-0.0 size=N/A time=00:04:46.61 bitrate=N/A speed=16.3x    frame= 7100 fps=393 q=-0.0 size=N/A time=00:04:56.12 bitrate=N/A speed=16.4x    frame= 7326 fps=394 q=-0.0 size=N/A time=00:05:05.55 bitrate=N/A speed=16.5x    frame= 7586 fps=397 q=-0.0 size=N/A time=00:05:16.39 bitrate=N/A speed=16.6x    frame= 7827 fps=399 q=-0.0 size=N/A time=00:05:26.45 bitrate=N/A speed=16.6x    frame= 8017 fps=398 q=-0.0 size=N/A time=00:05:34.37 bitrate=N/A speed=16.6x    frame= 8247 fps=399 q=-0.0 size=N/A time=00:05:43.96 bitrate=N/A speed=16.7x    frame= 8496 fps=402 q=-0.0 size=N/A time=00:05:54.35 bitrate=N/A speed=16.7x    frame= 8741 fps=403 q=-0.0 size=N/A time=00:06:04.57 bitrate=N/A speed=16.8x    frame= 8939 fps=403 q=-0.0 size=N/A time=00:06:12.83 bitrate=N/A speed=16.8x    frame= 9193 fps=405 q=-0.0 size=N/A time=00:06:23.42 bitrate=N/A speed=16.9x    frame= 9444 fps=407 q=-0.0 size=N/A time=00:06:33.89 bitrate=N/A speed=  17x    frame= 9696 fps=409 q=-0.0 size=N/A time=00:06:44.40 bitrate=N/A speed=  17x    frame= 9903 fps=408 q=-0.0 size=N/A time=00:06:53.03 bitrate=N/A speed=  17x    frame=10173 fps=411 q=-0.0 size=N/A time=00:07:04.29 bitrate=N/A speed=17.1x    frame=10411 fps=412 q=-0.0 size=N/A time=00:07:14.22 bitrate=N/A speed=17.2x    frame=10663 fps=413 q=-0.0 size=N/A time=00:07:24.73 bitrate=N/A speed=17.2x    frame=10926 fps=415 q=-0.0 size=N/A time=00:07:35.70 bitrate=N/A speed=17.3x    frame=11159 fps=416 q=-0.0 size=N/A time=00:07:45.42 bitrate=N/A speed=17.4x    frame=11383 fps=416 q=-0.0 size=N/A time=00:07:54.76 bitrate=N/A speed=17.4x    frame=11604 fps=417 q=-0.0 size=N/A time=00:08:03.98 bitrate=N/A speed=17.4x    frame=11822 fps=417 q=-0.0 size=N/A time=00:08:13.07 bitrate=N/A speed=17.4x    frame=12024 fps=416 q=-0.0 size=N/A time=00:08:21.50 bitrate=N/A speed=17.4x    frame=12274 fps=417 q=-0.0 size=N/A time=00:08:31.92 bitrate=N/A speed=17.4x    frame=12501 fps=418 q=-0.0 size=N/A time=00:08:41.39 bitrate=N/A speed=17.4x    frame=12757 fps=419 q=-0.0 size=N/A time=00:08:52.07 bitrate=N/A speed=17.5x    frame=12991 fps=420 q=-0.0 size=N/A time=00:09:01.83 bitrate=N/A speed=17.5x    frame=13186 fps=419 q=-0.0 size=N/A time=00:09:09.96 bitrate=N/A speed=17.5x    frame=13428 fps=420 q=-0.0 size=N/A time=00:09:20.05 bitrate=N/A speed=17.5x    frame=13685 fps=421 q=-0.0 size=N/A time=00:09:30.77 bitrate=N/A speed=17.6x    frame=13909 fps=421 q=-0.0 size=N/A time=00:09:40.12 bitrate=N/A speed=17.6x    frame=14160 fps=422 q=-0.0 size=N/A time=00:09:50.59 bitrate=N/A speed=17.6x    frame=14411 fps=423 q=-0.0 size=N/A time=00:10:01.05 bitrate=N/A speed=17.7x    frame=14665 fps=424 q=-0.0 size=N/A time=00:10:11.65 bitrate=N/A speed=17.7x    frame=14901 fps=425 q=-0.0 size=N/A time=00:10:21.49 bitrate=N/A speed=17.7x    frame=15110 fps=424 q=-0.0 size=N/A time=00:10:30.21 bitrate=N/A speed=17.7x    frame=15329 fps=425 q=-0.0 size=N/A time=00:10:39.34 bitrate=N/A speed=17.7x    frame=15576 fps=425 q=-0.0 size=N/A time=00:10:49.64 bitrate=N/A speed=17.7x    frame=15785 fps=425 q=-0.0 size=N/A time=00:10:58.36 bitrate=N/A speed=17.7x    frame=15981 fps=424 q=-0.0 size=N/A time=00:11:06.54 bitrate=N/A speed=17.7x    frame=16214 fps=425 q=-0.0 size=N/A time=00:11:16.25 bitrate=N/A speed=17.7x    frame=16476 fps=426 q=-0.0 size=N/A time=00:11:27.18 bitrate=N/A speed=17.8x    frame=16691 fps=426 q=-0.0 size=N/A time=00:11:36.15 bitrate=N/A speed=17.8x    frame=16902 fps=425 q=-0.0 size=N/A time=00:11:44.95 bitrate=N/A speed=17.7x    frame=17106 fps=425 q=-0.0 size=N/A time=00:11:53.46 bitrate=N/A speed=17.7x    frame=17344 fps=426 q=-0.0 size=N/A time=00:12:03.38 bitrate=N/A speed=17.8x    frame=17595 fps=426 q=-0.0 size=N/A time=00:12:13.85 bitrate=N/A speed=17.8x    frame=17823 fps=427 q=-0.0 size=N/A time=00:12:23.36 bitrate=N/A speed=17.8x    frame=18057 fps=427 q=-0.0 size=N/A time=00:12:33.12 bitrate=N/A speed=17.8x    frame=18289 fps=427 q=-0.0 size=N/A time=00:12:42.80 bitrate=N/A speed=17.8x    frame=18563 fps=428 q=-0.0 size=N/A time=00:12:54.23 bitrate=N/A speed=17.9x    frame=18801 fps=429 q=-0.0 size=N/A time=00:13:04.15 bitrate=N/A speed=17.9x    frame=19048 fps=429 q=-0.0 size=N/A time=00:13:14.46 bitrate=N/A speed=17.9x    frame=19228 fps=429 q=-0.0 size=N/A time=00:13:21.96 bitrate=N/A speed=17.9x    frame=19441 fps=428 q=-0.0 size=N/A time=00:13:30.85 bitrate=N/A speed=17.9x    frame=19661 fps=428 q=-0.0 size=N/A time=00:13:40.02 bitrate=N/A speed=17.9x    frame=19889 fps=428 q=-0.0 size=N/A time=00:13:49.53 bitrate=N/A speed=17.9x    frame=20130 fps=429 q=-0.0 size=N/A time=00:13:59.58 bitrate=N/A speed=17.9x    frame=20388 fps=430 q=-0.0 size=N/A time=00:14:10.34 bitrate=N/A speed=17.9x    frame=20612 fps=430 q=-0.0 size=N/A time=00:14:19.69 bitrate=N/A speed=17.9x    frame=20847 fps=430 q=-0.0 size=N/A time=00:14:29.49 bitrate=N/A speed=17.9x    frame=21091 fps=430 q=-0.0 size=N/A time=00:14:39.67 bitrate=N/A speed=  18x    frame=21359 fps=431 q=-0.0 size=N/A time=00:14:50.84 bitrate=N/A speed=  18x    frame=21608 fps=432 q=-0.0 size=N/A time=00:15:01.23 bitrate=N/A speed=  18x    frame=21842 fps=432 q=-0.0 size=N/A time=00:15:10.99 bitrate=N/A speed=  18x    frame=22057 fps=432 q=-0.0 size=N/A time=00:15:19.96 bitrate=N/A speed=  18x    frame=22312 fps=433 q=-0.0 size=N/A time=00:15:30.59 bitrate=N/A speed=  18x    frame=22559 fps=433 q=-0.0 size=N/A time=00:15:40.89 bitrate=N/A speed=18.1x    frame=22772 fps=433 q=-0.0 size=N/A time=00:15:49.78 bitrate=N/A speed=18.1x    frame=23003 fps=433 q=-0.0 size=N/A time=00:15:59.41 bitrate=N/A speed=18.1x    frame=23251 fps=433 q=-0.0 size=N/A time=00:16:09.76 bitrate=N/A speed=18.1x    frame=23478 fps=433 q=-0.0 size=N/A time=00:16:19.22 bitrate=N/A speed=18.1x    frame=23702 fps=434 q=-0.0 size=N/A time=00:16:28.57 bitrate=N/A speed=18.1x    frame=23953 fps=434 q=-0.0 size=N/A time=00:16:39.03 bitrate=N/A speed=18.1x    frame=24152 fps=434 q=-0.0 size=N/A time=00:16:47.33 bitrate=N/A speed=18.1x    frame=24356 fps=433 q=-0.0 size=N/A time=00:16:55.84 bitrate=N/A speed=18.1x    frame=24583 fps=433 q=-0.0 size=N/A time=00:17:05.31 bitrate=N/A speed=18.1x    frame=24784 fps=433 q=-0.0 size=N/A time=00:17:13.69 bitrate=N/A speed=18.1x    frame=24979 fps=432 q=-0.0 size=N/A time=00:17:21.83 bitrate=N/A speed=  18x    frame=25197 fps=432 q=-0.0 size=N/A time=00:17:30.92 bitrate=N/A speed=  18x    frame=25456 fps=433 q=-0.0 size=N/A time=00:17:41.72 bitrate=N/A speed=18.1x    frame=25692 fps=433 q=-0.0 size=N/A time=00:17:51.57 bitrate=N/A speed=18.1x    frame=25928 fps=433 q=-0.0 size=N/A time=00:18:01.41 bitrate=N/A speed=18.1x    frame=26180 fps=434 q=-0.0 size=N/A time=00:18:11.92 bitrate=N/A speed=18.1x    frame=26366 fps=433 q=-0.0 size=N/A time=00:18:19.68 bitrate=N/A speed=18.1x    frame=26582 fps=433 q=-0.0 size=N/A time=00:18:28.69 bitrate=N/A speed=18.1x    frame=26820 fps=433 q=-0.0 size=N/A time=00:18:38.61 bitrate=N/A speed=18.1x    frame=27051 fps=433 q=-0.0 size=N/A time=00:18:48.25 bitrate=N/A speed=18.1x    frame=27278 fps=434 q=-0.0 size=N/A time=00:18:57.71 bitrate=N/A speed=18.1x    frame=27472 fps=433 q=-0.0 size=N/A time=00:19:05.81 bitrate=N/A speed=18.1x    frame=27697 fps=433 q=-0.0 size=N/A time=00:19:15.19 bitrate=N/A speed=18.1x    frame=27928 fps=433 q=-0.0 size=N/A time=00:19:24.83 bitrate=N/A speed=18.1x    frame=28140 fps=433 q=-0.0 size=N/A time=00:19:33.67 bitrate=N/A speed=18.1x    frame=28395 fps=433 q=-0.0 size=N/A time=00:19:44.30 bitrate=N/A speed=18.1x    frame=28623 fps=434 q=-0.0 size=N/A time=00:19:53.81 bitrate=N/A speed=18.1x    frame=28873 fps=434 q=-0.0 size=N/A time=00:20:04.24 bitrate=N/A speed=18.1x    frame=29098 fps=434 q=-0.0 size=N/A time=00:20:13.62 bitrate=N/A speed=18.1x    frame=29355 fps=435 q=-0.0 size=N/A time=00:20:24.34 bitrate=N/A speed=18.1x    frame=29610 fps=435 q=-0.0 size=N/A time=00:20:34.98 bitrate=N/A speed=18.1x    frame=29887 fps=436 q=-0.0 size=N/A time=00:20:46.53 bitrate=N/A speed=18.2x    frame=30119 fps=436 q=-0.0 size=N/A time=00:20:56.21 bitrate=N/A speed=18.2x    frame=30326 fps=436 q=-0.0 size=N/A time=00:21:04.84 bitrate=N/A speed=18.2x    frame=30573 fps=436 q=-0.0 size=N/A time=00:21:15.14 bitrate=N/A speed=18.2x    frame=30800 fps=436 q=-0.0 size=N/A time=00:21:24.61 bitrate=N/A speed=18.2x    frame=31018 fps=436 q=-0.0 size=N/A time=00:21:33.70 bitrate=N/A speed=18.2x    frame=31262 fps=436 q=-0.0 size=N/A time=00:21:43.88 bitrate=N/A speed=18.2x    frame=31504 fps=436 q=-0.0 size=N/A time=00:21:53.97 bitrate=N/A speed=18.2x    frame=31689 fps=436 q=-0.0 size=N/A time=00:22:01.69 bitrate=N/A speed=18.2x    frame=31858 fps=435 q=-0.0 size=N/A time=00:22:08.74 bitrate=N/A speed=18.1x    frame=32000 fps=434 q=-0.0 size=N/A time=00:22:14.66 bitrate=N/A speed=18.1x    frame=32154 fps=433 q=-0.0 size=N/A time=00:22:21.08 bitrate=N/A speed=18.1x    frame=32297 fps=432 q=-0.0 size=N/A time=00:22:27.05 bitrate=N/A speed=  18x    frame=32483 fps=431 q=-0.0 size=N/A time=00:22:34.81 bitrate=N/A speed=  18x    frame=32686 fps=431 q=-0.0 size=N/A time=00:22:43.27 bitrate=N/A speed=  18x    frame=32847 fps=430 q=-0.0 size=N/A time=00:22:49.99 bitrate=N/A speed=17.9x    frame=33031 fps=430 q=-0.0 size=N/A time=00:22:57.66 bitrate=N/A speed=17.9x    frame=33212 fps=429 q=-0.0 size=N/A time=00:23:05.21 bitrate=N/A speed=17.9x    frame=33424 fps=429 q=-0.0 size=N/A time=00:23:14.05 bitrate=N/A speed=17.9x    frame=33609 fps=429 q=-0.0 size=N/A time=00:23:21.77 bitrate=N/A speed=17.9x    frame=33857 fps=429 q=-0.0 size=N/A time=00:23:32.11 bitrate=N/A speed=17.9x    frame=34152 fps=430 q=-0.0 size=N/A time=00:23:44.42 bitrate=N/A speed=17.9x    frame=34431 fps=431 q=-0.0 size=N/A time=00:23:56.05 bitrate=N/A speed=  18x    frame=34724 fps=432 q=-0.0 size=N/A time=00:24:08.28 bitrate=N/A speed=  18x    frame=35010 fps=432 q=-0.0 size=N/A time=00:24:20.20 bitrate=N/A speed=  18x    frame=35300 fps=433 q=-0.0 size=N/A time=00:24:32.30 bitrate=N/A speed=18.1x    frame=35588 fps=434 q=-0.0 size=N/A time=00:24:44.31 bitrate=N/A speed=18.1x    [Parsed_psnr_10 @ 000002a1ef8ad4c0] PSNR y:47.490136 u:49.511984 v:50.060506 average:48.127434 min:37.219363 max:inf
[out#0/null @ 000002a1d8e84540] video:15374KiB audio:279816KiB subtitle:0KiB other streams:0KiB global headers:0KiB muxing overhead: unknown
frame=35779 fps=435 q=-0.0 Lsize=N/A time=00:24:52.28 bitrate=N/A speed=18.1x    
